<svg width="9" height="8" viewBox="0 0 9 8" fill="none" xmlns="http://www.w3.org/2000/svg">
<path d="M5.40998 0C5.24582 0 5.08535 0.0486787 4.94886 0.13988C4.81236 0.231082 4.70598 0.36071 4.64316 0.512373C4.58034 0.664035 4.5639 0.830921 4.59593 0.991925C4.62795 1.15293 4.707 1.30082 4.82308 1.4169C4.93916 1.53298 5.08705 1.61203 5.24805 1.64405C5.40906 1.67608 5.57594 1.65964 5.72761 1.59682C5.87927 1.534 6.0089 1.42762 6.1001 1.29112C6.1913 1.15463 6.23998 0.994158 6.23998 0.83C6.23998 0.60987 6.15253 0.398757 5.99688 0.243101C5.84122 0.0874462 5.63011 0 5.40998 0ZM5.40998 0.53C5.44975 0.528603 5.48939 0.535408 5.52642 0.54999C5.56345 0.564572 5.59708 0.586619 5.62522 0.61476C5.65336 0.642901 5.67541 0.676533 5.68999 0.713563C5.70457 0.750593 5.71138 0.790227 5.70998 0.83C5.70998 0.909565 5.67837 0.985871 5.62211 1.04213C5.56585 1.09839 5.48954 1.13 5.40998 1.13C5.33041 1.13 5.25411 1.09839 5.19785 1.04213C5.14159 0.985871 5.10998 0.909565 5.10998 0.83C5.10858 0.790227 5.11539 0.750593 5.12997 0.713563C5.14455 0.676533 5.1666 0.642901 5.19474 0.61476C5.22288 0.586619 5.25651 0.564572 5.29354 0.54999C5.33057 0.535408 5.37021 0.528603 5.40998 0.53ZM0.239979 1.42C0.172782 1.42513 0.110202 1.45614 0.0654297 1.50651C0.0206573 1.55688 -0.00280869 1.62267 -2.14612e-05 1.69V3.6C-0.00136769 3.63498 0.00436199 3.66986 0.0168241 3.70257C0.0292863 3.73528 0.0482243 3.76513 0.0725029 3.79035C0.0967816 3.81556 0.125901 3.83561 0.158116 3.8493C0.19033 3.86298 0.224977 3.87003 0.259979 3.87H1.76998L6.46998 7C6.51889 7.01474 6.57106 7.01474 6.61998 7H8.19998C8.26893 7 8.33507 6.97261 8.38383 6.92385C8.43259 6.87509 8.45998 6.80896 8.45998 6.74V4.86C8.45998 4.79104 8.43259 4.72491 8.38383 4.67615C8.33507 4.62739 8.26893 4.6 8.19998 4.6H6.69998L6.51998 4.48V2.85C6.4938 2.57507 6.36606 2.31978 6.16173 2.13398C5.9574 1.94819 5.69115 1.84524 5.41498 1.84524C5.13881 1.84524 4.87255 1.94819 4.66822 2.13398C4.46389 2.31978 4.33616 2.57507 4.30998 2.85V3L1.99998 1.47C1.95106 1.45526 1.89889 1.45526 1.84998 1.47H0.239979V1.42ZM0.529979 2H1.76998L5.88998 4.7L6.09998 4.84L6.45998 5.08C6.50889 5.09474 6.56106 5.09474 6.60998 5.08H7.93998V6.51H6.69998L1.99998 3.38C1.95106 3.36526 1.89889 3.36526 1.84998 3.38H0.529979V2ZM5.40998 2.32C5.55789 2.31445 5.70216 2.36665 5.81227 2.46556C5.92238 2.56448 5.9897 2.70234 5.99998 2.85V4.12L4.83998 3.36V2.86C4.83865 2.78431 4.85241 2.70911 4.88046 2.6388C4.90851 2.56848 4.95029 2.50446 5.00335 2.45047C5.05641 2.39648 5.1197 2.35359 5.18951 2.32433C5.25933 2.29506 5.33428 2.27999 5.40998 2.28V2.32ZM3.19998 5.32H2.12998C2.08243 5.31798 2.03523 5.32904 1.99354 5.35199C1.95184 5.37495 1.91725 5.4089 1.89352 5.45016C1.8698 5.49142 1.85785 5.5384 1.85899 5.58598C1.86013 5.63357 1.87431 5.67992 1.89998 5.72L2.28998 6.72C2.31385 6.7863 2.36308 6.84041 2.42684 6.87042C2.4906 6.90042 2.56367 6.90387 2.62998 6.88C2.69628 6.85613 2.75039 6.8069 2.78039 6.74314C2.8104 6.67937 2.81385 6.6063 2.78998 6.54L2.69998 6.3L3.48998 6.83C3.51887 6.8497 3.55136 6.86351 3.58559 6.87066C3.61982 6.8778 3.65512 6.87813 3.68948 6.87163C3.72383 6.86513 3.75657 6.85193 3.78583 6.83277C3.81508 6.81362 3.84028 6.78889 3.85998 6.76C3.87968 6.73111 3.89349 6.69862 3.90063 6.66439C3.90778 6.63016 3.90811 6.59486 3.90161 6.5605C3.89511 6.52614 3.8819 6.4934 3.86275 6.46415C3.8436 6.43489 3.81887 6.4097 3.78998 6.39L2.99998 5.85H3.24998C3.32026 5.85 3.38766 5.82208 3.43736 5.77238C3.48706 5.72269 3.51498 5.65528 3.51498 5.585C3.51498 5.51472 3.48706 5.44731 3.43736 5.39762C3.38766 5.34792 3.32026 5.32 3.24998 5.32H3.19998Z" fill="black"/>
</svg>
