<svg width="9" height="9" viewBox="0 0 9 9" fill="none" xmlns="http://www.w3.org/2000/svg">
<path d="M0.259948 0.000192392C0.190992 0.000192392 0.12486 0.0275852 0.0761005 0.0763446C0.027341 0.125104 -5.17485e-05 0.191236 -5.17485e-05 0.260192V8.20019C-0.00139798 8.23517 0.0043317 8.27006 0.0167938 8.30276C0.029256 8.33547 0.048194 8.36533 0.0724726 8.39054C0.0967513 8.41575 0.125871 8.4358 0.158085 8.44949C0.1903 8.46318 0.224947 8.47022 0.259948 8.47019H8.19995C8.23492 8.47154 8.26981 8.46581 8.30252 8.45335C8.33523 8.44089 8.36508 8.42195 8.3903 8.39767C8.41551 8.37339 8.43556 8.34427 8.44925 8.31206C8.46293 8.27984 8.46997 8.24519 8.46995 8.21019V8.21019V0.260192C8.46997 0.225191 8.46293 0.190544 8.44925 0.158329C8.43556 0.126115 8.41551 0.0969954 8.3903 0.0727168C8.36508 0.0484381 8.33523 0.0295001 8.30252 0.017038C8.26981 0.00457584 8.23492 -0.00115384 8.19995 0.000192392H0.259948ZM0.529948 0.530192H1.52995V2.92019C1.52992 2.95519 1.53696 2.98984 1.55065 3.02206C1.56434 3.05427 1.58439 3.08339 1.6096 3.10767C1.63481 3.13195 1.66467 3.15088 1.69738 3.16335C1.73008 3.17581 1.76497 3.18154 1.79995 3.18019H6.66995C6.7389 3.18019 6.80504 3.1528 6.8538 3.10404C6.90256 3.05528 6.92995 2.98915 6.92995 2.92019V0.530192H7.92995V7.94019H7.37995V3.79019C7.37995 3.72124 7.35256 3.6551 7.3038 3.60634C7.25504 3.55759 7.1889 3.53019 7.11995 3.53019H1.32995C1.26452 3.53524 1.20341 3.56485 1.1589 3.61307C1.11438 3.66129 1.08975 3.72457 1.08995 3.79019V7.94019H0.529948V0.530192ZM2.05995 0.530192H6.39995V2.65019H2.05995V0.530192ZM3.22995 0.870192C3.18349 0.869333 3.13766 0.880939 3.09721 0.903802C3.05676 0.926664 3.02317 0.959949 2.99995 1.00019L2.36995 1.91019C2.33017 1.96854 2.31519 2.0403 2.32832 2.10969C2.34145 2.17908 2.3816 2.24041 2.43995 2.28019C2.4983 2.31997 2.57006 2.33495 2.63945 2.32182C2.70883 2.30869 2.77017 2.26854 2.80995 2.21019L3.21995 1.62019L3.62995 2.21019C3.66708 2.26987 3.72639 2.31235 3.79484 2.32829C3.86329 2.34423 3.93527 2.33232 3.99495 2.29519C4.05462 2.25806 4.0971 2.19875 4.11304 2.1303C4.12898 2.06185 4.11708 1.98987 4.07995 1.93019V1.93019L3.45995 1.00019C3.43672 0.959949 3.40314 0.926664 3.36269 0.903802C3.32224 0.880939 3.2764 0.869333 3.22995 0.870192V0.870192ZM4.59995 0.870192C4.55081 0.869228 4.5024 0.882214 4.46033 0.907643C4.41827 0.933073 4.38428 0.969904 4.3623 1.01387C4.34032 1.05783 4.33125 1.10712 4.33614 1.15603C4.34103 1.20494 4.35969 1.25146 4.38995 1.29019L4.99995 2.20019C5.01907 2.22976 5.044 2.25514 5.07322 2.27478C5.10244 2.29443 5.13535 2.30794 5.16995 2.31448C5.20455 2.32103 5.24011 2.32048 5.27449 2.31286C5.30887 2.30525 5.34135 2.29073 5.36995 2.27019L5.43995 2.20019L6.06995 1.29019C6.10268 1.2332 6.11261 1.16594 6.09776 1.10192C6.0829 1.0379 6.04435 0.98189 5.98986 0.945144C5.93538 0.908399 5.869 0.893649 5.80408 0.903862C5.73916 0.914075 5.68052 0.948493 5.63995 1.00019V1.00019L5.22995 1.59019L4.81995 1.00019C4.79672 0.959949 4.76314 0.926664 4.72269 0.903802C4.68224 0.880939 4.6364 0.869333 4.58995 0.870192H4.59995ZM1.59995 4.05019H3.99995V7.94019H1.61995L1.59995 4.05019ZM4.47995 4.05019H6.84995V7.94019H4.49995L4.47995 4.05019Z" fill="black"/>
</svg>
