<svg width="21" height="24" viewBox="0 0 21 24" fill="none" xmlns="http://www.w3.org/2000/svg">
<path fill-rule="evenodd" clip-rule="evenodd" d="M17 22C17.552 22 18 21.552 18 21C18 20.448 17.552 20 17 20C16.448 20 16 20.448 16 21C16 21.552 16.448 22 17 22ZM17 24C15.343 24 14 22.657 14 21C14 19.343 15.343 18 17 18C18.657 18 20 19.343 20 21C20 22.657 18.657 24 17 24ZM3 22C3.552 22 4 21.552 4 21C4 20.448 3.552 20 3 20C2.448 20 2 20.448 2 21C2 21.552 2.448 22 3 22ZM4.247 18.27L4.94 16.884L2.22 6H1C0.448 6 0 5.552 0 5C0 4.448 0.448 4 1 4H3C3.459 4 3.858 4.312 3.97 4.757L5.03 9H19C19.552 9 20 9.448 19.999 10.001C19.999 10.066 19.993 10.132 19.98 10.196L18.98 15.196C18.904 15.575 18.617 15.876 18.243 15.97L10.243 17.97C9.706 18.1 9.166 17.771 9.035 17.234C8.906 16.703 9.228 16.167 9.757 16.03L17.144 14.183L17.78 11H5.53L6.97 16.757C7.028 16.989 7.001 17.233 6.894 17.447L5.894 19.447C5.846 19.543 5.783 19.631 5.708 19.707C6.422 21.202 5.789 22.993 4.294 23.707C2.799 24.421 1.008 23.788 0.294 22.293C-0.42 20.798 0.213 19.007 1.708 18.293C2.509 17.91 3.439 17.901 4.247 18.27Z" fill="#4B6992"/>
<path d="M6 13L4.5 7H18V8V9V10.5L17 13H6Z" fill="white"/>
<path fill-rule="evenodd" clip-rule="evenodd" d="M15.9411 7.17312C15.5611 7.16712 15.2591 6.85512 15.2651 6.47612C15.2721 6.10712 15.5711 5.80912 15.9411 5.80312H19.3441C19.7241 5.81012 20.0271 6.12212 20.0201 6.50012C20.0141 6.86912 19.7151 7.16712 19.3451 7.17312H15.9411ZM12.8221 5.80312V0.673119C12.8291 0.295119 13.1421 -0.00688073 13.5221 0.000119273C13.8921 0.00611927 14.1911 0.304119 14.1971 0.673119V12.3031C14.2041 12.6821 13.9021 12.9941 13.5221 13.0011C13.1421 13.0071 12.8291 12.7061 12.8221 12.3271C12.8221 12.3191 12.8221 12.3121 12.8221 12.3031V7.17312H7.67512C7.29612 7.16712 6.99312 6.85512 7.00012 6.47612C7.00612 6.10712 7.30512 5.80912 7.67512 5.80312H12.8221Z" fill="#E41F23"/>
</svg>
