<svg 
 xmlns="http://www.w3.org/2000/svg"
 xmlns:xlink="http://www.w3.org/1999/xlink"
 width="33px" height="36px">
<path fill-rule="evenodd"  fill="rgb(86, 105, 143)"
 d="M16.476,17.968 C17.548,17.968 18.418,17.074 18.418,15.972 C18.418,14.869 17.548,13.975 16.476,13.975 C15.404,13.975 14.535,14.869 14.535,15.972 C14.535,17.074 15.404,17.968 16.476,17.968 ZM18.415,10.321 C21.774,11.543 23.364,15.610 21.527,18.959 C20.358,21.090 17.905,22.296 15.559,21.892 C11.871,21.256 9.793,17.429 10.981,13.974 C11.567,12.267 12.873,10.925 14.532,10.321 L14.532,1.996 C14.532,0.894 15.410,-0.000 16.482,-0.001 C20.555,-0.002 24.472,1.565 27.426,4.478 C33.530,10.495 33.530,20.290 27.395,26.336 L17.786,35.412 C17.044,36.113 15.903,36.113 15.161,35.412 L5.521,26.308 C-0.583,20.290 -0.583,10.495 5.521,4.478 C6.295,3.714 7.524,3.741 8.266,4.537 C9.008,5.334 8.982,6.598 8.207,7.361 C3.698,11.807 3.698,18.978 8.178,23.395 L16.474,31.231 L24.739,23.425 C29.249,18.978 29.249,11.807 24.739,7.361 C23.000,5.650 20.793,4.528 18.415,4.146 L18.415,10.323 L18.415,10.321 Z"/>
</svg>