<svg xmlns="http://www.w3.org/2000/svg">
  <symbol id="ico-cart" viewBox="0 0 20 20" xmlns="http://www.w3.org/2000/svg">
    <path fill-rule="evenodd" clip-rule="evenodd" d="M17 18.0117C17.552 18.0117 18 17.5637 18 17.0117C18 16.4597 17.552 16.0117 17 16.0117C16.448 16.0117 16 16.4597 16 17.0117C16 17.5637 16.448 18.0117 17 18.0117ZM17 20.0117C15.343 20.0117 14 18.6687 14 17.0117C14 15.3547 15.343 14.0117 17 14.0117C18.657 14.0117 20 15.3547 20 17.0117C20 18.6687 18.657 20.0117 17 20.0117ZM3 18.0117C3.552 18.0117 4 17.5637 4 17.0117C4 16.4597 3.552 16.0117 3 16.0117C2.448 16.0117 2 16.4597 2 17.0117C2 17.5637 2.448 18.0117 3 18.0117ZM4.247 14.2817L4.94 12.8957L2.22 2.01172H1C0.448 2.01172 0 1.56372 0 1.01172C0 0.459719 0.448 0.0117188 1 0.0117188H3C3.459 0.0117188 3.858 0.323719 3.97 0.768719L5.03 5.01172H19C19.552 5.01172 20 5.46072 19.999 6.01272C19.999 6.07772 19.993 6.14372 19.98 6.20772L18.98 11.2077C18.904 11.5867 18.617 11.8877 18.243 11.9817L10.243 13.9817C9.706 14.1127 9.166 13.7827 9.035 13.2457C8.906 12.7147 9.228 12.1787 9.757 12.0417L17.144 10.1947L17.78 7.01172H5.53L6.97 12.7687C7.028 13.0007 7.001 13.2457 6.894 13.4587L5.894 15.4587C5.846 15.5547 5.783 15.6427 5.708 15.7187C6.422 17.2137 5.789 19.0047 4.294 19.7187C2.799 20.4327 1.008 19.7997 0.294 18.3047C-0.42 16.8097 0.213 15.0187 1.708 14.3047C2.509 13.9217 3.439 13.9137 4.247 14.2827V14.2817Z" fill="currentColor" />
  </symbol>
  <symbol id="ico-close" viewBox="0 0 20 20" xmlns="http://www.w3.org/2000/svg" xmlns:xlink="http://www.w3.org/1999/xlink">
    <path fill="currentColor" d="M11.293,12.707 C10.909,12.310 10.920,11.677 11.318,11.293 C11.705,10.919 12.319,10.919 12.707,11.293 L13.707,12.293 C14.091,12.690 14.080,13.323 13.682,13.707 C13.295,14.081 12.681,14.081 12.293,13.707 L11.293,12.707 ZM10.000,2.000 C9.448,2.000 9.000,1.552 9.000,1.000 C9.000,0.448 9.448,-0.000 10.000,-0.000 C15.523,-0.000 20.000,4.477 20.000,10.000 C20.000,15.523 15.523,20.000 10.000,20.000 C4.477,20.000 -0.000,15.523 -0.000,10.000 C-0.001,6.320 2.019,2.937 5.260,1.193 C5.746,0.931 6.353,1.112 6.615,1.598 C6.877,2.084 6.696,2.691 6.210,2.953 L6.210,2.953 C2.318,5.044 0.858,9.895 2.950,13.787 C5.041,17.679 9.892,19.138 13.784,17.047 C17.676,14.956 19.135,10.105 17.044,6.213 C15.650,3.619 12.944,2.001 10.000,2.000 ZM10.000,8.586 L12.293,6.293 C12.690,5.909 13.323,5.920 13.707,6.318 C14.081,6.705 14.081,7.319 13.707,7.707 L7.707,13.707 C7.323,14.104 6.690,14.115 6.293,13.732 C5.896,13.348 5.885,12.715 6.268,12.318 C6.276,12.309 6.285,12.301 6.293,12.293 L8.586,10.000 L6.293,7.707 C5.909,7.310 5.920,6.677 6.317,6.293 C6.705,5.919 7.319,5.919 7.707,6.293 L10.000,8.586 Z" />
  </symbol>
  <symbol id="ico-user" viewBox="0 0 18 18" xmlns="http://www.w3.org/2000/svg" xmlns:xlink="http://www.w3.org/1999/xlink">
    <path d="M9.000,6.001 C10.105,6.001 11.000,5.106 11.000,4.001 C11.000,2.897 10.105,2.002 9.000,2.002 C7.895,2.002 7.000,2.897 7.000,4.001 C7.000,5.106 7.895,6.001 9.000,6.001 ZM11.520,7.107 L12.530,8.117 L16.292,9.266 C16.661,9.379 16.932,9.694 16.988,10.076 L17.989,16.854 C18.070,17.400 17.692,17.909 17.146,17.989 C17.098,17.996 17.049,18.000 17.000,18.000 L1.005,18.000 C0.453,18.000 0.005,17.553 0.005,17.001 C0.005,16.952 0.008,16.903 0.015,16.855 L1.011,10.078 C1.062,9.728 1.295,9.431 1.623,9.297 L4.623,8.074 C5.139,7.876 5.717,8.133 5.915,8.649 C6.108,9.150 5.870,9.714 5.377,9.926 L2.907,10.933 L2.162,16.000 L15.840,16.000 L15.100,10.994 L11.705,9.956 C11.549,9.908 11.407,9.822 11.291,9.707 L9.547,7.963 C7.054,8.308 4.781,6.276 5.014,3.600 C5.143,2.123 6.145,0.799 7.532,0.274 C10.044,-0.677 12.616,0.960 12.961,3.452 C13.153,4.839 12.606,6.225 11.519,7.107 L11.520,7.107 Z" fill="currentColor" />
  </symbol>
  <symbol id="ico-order" viewBox="0 0 18 18" xmlns="http://www.w3.org/2000/svg" xmlns:xlink="http://www.w3.org/1999/xlink">
    <path d="M5.000,12.006 C4.448,12.006 4.000,11.558 4.000,11.006 C4.000,10.453 4.448,10.006 5.000,10.006 L7.000,10.006 C7.552,10.006 8.000,10.453 8.000,11.006 C8.000,11.558 7.552,12.006 7.000,12.006 L5.000,12.006 ZM5.000,9.006 C4.448,9.006 4.000,8.558 4.000,8.006 C4.000,7.453 4.448,7.006 5.000,7.006 L9.000,7.006 C9.552,7.006 10.000,7.453 10.000,8.006 C10.000,8.558 9.552,9.006 9.000,9.006 L5.000,9.006 ZM5.000,6.006 C4.448,6.006 4.000,5.558 4.000,5.006 C4.000,4.453 4.448,4.006 5.000,4.006 L9.000,4.006 C9.552,4.006 10.000,4.453 10.000,5.006 C10.000,5.558 9.552,6.006 9.000,6.006 L5.000,6.006 ZM16.000,16.006 L16.000,9.006 C16.000,8.453 16.448,8.006 17.000,8.006 C17.552,8.006 18.000,8.453 18.000,9.006 L18.000,17.006 C18.000,17.558 17.552,18.006 17.000,18.006 L1.000,18.006 C0.448,18.006 -0.000,17.558 -0.000,17.006 L-0.000,1.006 C-0.000,0.453 0.448,0.006 1.000,0.006 L13.000,0.006 C13.552,0.006 14.000,0.453 14.000,1.006 L14.000,13.006 C14.000,13.558 13.552,14.006 13.000,14.006 C12.448,14.006 12.000,13.558 12.000,13.006 L12.000,2.006 L2.000,2.006 L2.000,16.006 L16.000,16.006 Z" fill="currentColor" />
  </symbol>
  <symbol id="ico-search" viewBox="0 0 18 18" xmlns="http://www.w3.org/2000/svg" xmlns:xlink="http://www.w3.org/1999/xlink">
    <path d="M17.720,16.305 L13.477,12.062 L13.478,12.062 C14.906,10.191 15.373,7.757 14.738,5.490 C13.195,-0.022 5.882,-2.363 1.167,3.174 C0.878,3.514 0.652,3.915 0.512,4.339 C-1.772,11.243 4.026,16.277 9.538,14.734 C10.069,14.585 10.380,14.033 10.230,13.501 C10.059,12.890 9.356,12.572 8.763,12.906 C8.408,13.106 8.026,13.274 7.622,13.225 C0.358,12.334 0.148,3.264 6.993,1.901 C7.331,1.834 7.692,1.834 8.030,1.901 C13.418,2.973 14.436,8.821 11.083,11.697 C10.845,11.900 10.814,12.227 11.035,12.449 L16.306,17.719 C16.693,18.093 17.307,18.093 17.695,17.719 C18.092,17.336 18.103,16.702 17.720,16.305 Z" fill="currentColor" />
  </symbol>
  <symbol id="ico-lift" viewBox="0 0 9 9" fill="none" xmlns="http://www.w3.org/2000/svg">
    <path d="M0.259948 0.000192392C0.190992 0.000192392 0.12486 0.0275852 0.0761005 0.0763446C0.027341 0.125104 -5.17485e-05 0.191236 -5.17485e-05 0.260192V8.20019C-0.00139798 8.23517 0.0043317 8.27006 0.0167938 8.30276C0.029256 8.33547 0.048194 8.36533 0.0724726 8.39054C0.0967513 8.41575 0.125871 8.4358 0.158085 8.44949C0.1903 8.46318 0.224947 8.47022 0.259948 8.47019H8.19995C8.23492 8.47154 8.26981 8.46581 8.30252 8.45335C8.33523 8.44089 8.36508 8.42195 8.3903 8.39767C8.41551 8.37339 8.43556 8.34427 8.44925 8.31206C8.46293 8.27984 8.46997 8.24519 8.46995 8.21019V8.21019V0.260192C8.46997 0.225191 8.46293 0.190544 8.44925 0.158329C8.43556 0.126115 8.41551 0.0969954 8.3903 0.0727168C8.36508 0.0484381 8.33523 0.0295001 8.30252 0.017038C8.26981 0.00457584 8.23492 -0.00115384 8.19995 0.000192392H0.259948ZM0.529948 0.530192H1.52995V2.92019C1.52992 2.95519 1.53696 2.98984 1.55065 3.02206C1.56434 3.05427 1.58439 3.08339 1.6096 3.10767C1.63481 3.13195 1.66467 3.15088 1.69738 3.16335C1.73008 3.17581 1.76497 3.18154 1.79995 3.18019H6.66995C6.7389 3.18019 6.80504 3.1528 6.8538 3.10404C6.90256 3.05528 6.92995 2.98915 6.92995 2.92019V0.530192H7.92995V7.94019H7.37995V3.79019C7.37995 3.72124 7.35256 3.6551 7.3038 3.60634C7.25504 3.55759 7.1889 3.53019 7.11995 3.53019H1.32995C1.26452 3.53524 1.20341 3.56485 1.1589 3.61307C1.11438 3.66129 1.08975 3.72457 1.08995 3.79019V7.94019H0.529948V0.530192ZM2.05995 0.530192H6.39995V2.65019H2.05995V0.530192ZM3.22995 0.870192C3.18349 0.869333 3.13766 0.880939 3.09721 0.903802C3.05676 0.926664 3.02317 0.959949 2.99995 1.00019L2.36995 1.91019C2.33017 1.96854 2.31519 2.0403 2.32832 2.10969C2.34145 2.17908 2.3816 2.24041 2.43995 2.28019C2.4983 2.31997 2.57006 2.33495 2.63945 2.32182C2.70883 2.30869 2.77017 2.26854 2.80995 2.21019L3.21995 1.62019L3.62995 2.21019C3.66708 2.26987 3.72639 2.31235 3.79484 2.32829C3.86329 2.34423 3.93527 2.33232 3.99495 2.29519C4.05462 2.25806 4.0971 2.19875 4.11304 2.1303C4.12898 2.06185 4.11708 1.98987 4.07995 1.93019V1.93019L3.45995 1.00019C3.43672 0.959949 3.40314 0.926664 3.36269 0.903802C3.32224 0.880939 3.2764 0.869333 3.22995 0.870192V0.870192ZM4.59995 0.870192C4.55081 0.869228 4.5024 0.882214 4.46033 0.907643C4.41827 0.933073 4.38428 0.969904 4.3623 1.01387C4.34032 1.05783 4.33125 1.10712 4.33614 1.15603C4.34103 1.20494 4.35969 1.25146 4.38995 1.29019L4.99995 2.20019C5.01907 2.22976 5.044 2.25514 5.07322 2.27478C5.10244 2.29443 5.13535 2.30794 5.16995 2.31448C5.20455 2.32103 5.24011 2.32048 5.27449 2.31286C5.30887 2.30525 5.34135 2.29073 5.36995 2.27019L5.43995 2.20019L6.06995 1.29019C6.10268 1.2332 6.11261 1.16594 6.09776 1.10192C6.0829 1.0379 6.04435 0.98189 5.98986 0.945144C5.93538 0.908399 5.869 0.893649 5.80408 0.903862C5.73916 0.914075 5.68052 0.948493 5.63995 1.00019V1.00019L5.22995 1.59019L4.81995 1.00019C4.79672 0.959949 4.76314 0.926664 4.72269 0.903802C4.68224 0.880939 4.6364 0.869333 4.58995 0.870192H4.59995ZM1.59995 4.05019H3.99995V7.94019H1.61995L1.59995 4.05019ZM4.47995 4.05019H6.84995V7.94019H4.49995L4.47995 4.05019Z" fill="currentColor" />
  </symbol>
  <symbol id="ico-eskalator" viewBox="0 0 9 8" fill="none" xmlns="http://www.w3.org/2000/svg">
    <path d="M5.40998 0C5.24582 0 5.08535 0.0486787 4.94886 0.13988C4.81236 0.231082 4.70598 0.36071 4.64316 0.512373C4.58034 0.664035 4.5639 0.830921 4.59593 0.991925C4.62795 1.15293 4.707 1.30082 4.82308 1.4169C4.93916 1.53298 5.08705 1.61203 5.24805 1.64405C5.40906 1.67608 5.57594 1.65964 5.72761 1.59682C5.87927 1.534 6.0089 1.42762 6.1001 1.29112C6.1913 1.15463 6.23998 0.994158 6.23998 0.83C6.23998 0.60987 6.15253 0.398757 5.99688 0.243101C5.84122 0.0874462 5.63011 0 5.40998 0ZM5.40998 0.53C5.44975 0.528603 5.48939 0.535408 5.52642 0.54999C5.56345 0.564572 5.59708 0.586619 5.62522 0.61476C5.65336 0.642901 5.67541 0.676533 5.68999 0.713563C5.70457 0.750593 5.71138 0.790227 5.70998 0.83C5.70998 0.909565 5.67837 0.985871 5.62211 1.04213C5.56585 1.09839 5.48954 1.13 5.40998 1.13C5.33041 1.13 5.25411 1.09839 5.19785 1.04213C5.14159 0.985871 5.10998 0.909565 5.10998 0.83C5.10858 0.790227 5.11539 0.750593 5.12997 0.713563C5.14455 0.676533 5.1666 0.642901 5.19474 0.61476C5.22288 0.586619 5.25651 0.564572 5.29354 0.54999C5.33057 0.535408 5.37021 0.528603 5.40998 0.53ZM0.239979 1.42C0.172782 1.42513 0.110202 1.45614 0.0654297 1.50651C0.0206573 1.55688 -0.00280869 1.62267 -2.14612e-05 1.69V3.6C-0.00136769 3.63498 0.00436199 3.66986 0.0168241 3.70257C0.0292863 3.73528 0.0482243 3.76513 0.0725029 3.79035C0.0967816 3.81556 0.125901 3.83561 0.158116 3.8493C0.19033 3.86298 0.224977 3.87003 0.259979 3.87H1.76998L6.46998 7C6.51889 7.01474 6.57106 7.01474 6.61998 7H8.19998C8.26893 7 8.33507 6.97261 8.38383 6.92385C8.43259 6.87509 8.45998 6.80896 8.45998 6.74V4.86C8.45998 4.79104 8.43259 4.72491 8.38383 4.67615C8.33507 4.62739 8.26893 4.6 8.19998 4.6H6.69998L6.51998 4.48V2.85C6.4938 2.57507 6.36606 2.31978 6.16173 2.13398C5.9574 1.94819 5.69115 1.84524 5.41498 1.84524C5.13881 1.84524 4.87255 1.94819 4.66822 2.13398C4.46389 2.31978 4.33616 2.57507 4.30998 2.85V3L1.99998 1.47C1.95106 1.45526 1.89889 1.45526 1.84998 1.47H0.239979V1.42ZM0.529979 2H1.76998L5.88998 4.7L6.09998 4.84L6.45998 5.08C6.50889 5.09474 6.56106 5.09474 6.60998 5.08H7.93998V6.51H6.69998L1.99998 3.38C1.95106 3.36526 1.89889 3.36526 1.84998 3.38H0.529979V2ZM5.40998 2.32C5.55789 2.31445 5.70216 2.36665 5.81227 2.46556C5.92238 2.56448 5.9897 2.70234 5.99998 2.85V4.12L4.83998 3.36V2.86C4.83865 2.78431 4.85241 2.70911 4.88046 2.6388C4.90851 2.56848 4.95029 2.50446 5.00335 2.45047C5.05641 2.39648 5.1197 2.35359 5.18951 2.32433C5.25933 2.29506 5.33428 2.27999 5.40998 2.28V2.32ZM3.19998 5.32H2.12998C2.08243 5.31798 2.03523 5.32904 1.99354 5.35199C1.95184 5.37495 1.91725 5.4089 1.89352 5.45016C1.8698 5.49142 1.85785 5.5384 1.85899 5.58598C1.86013 5.63357 1.87431 5.67992 1.89998 5.72L2.28998 6.72C2.31385 6.7863 2.36308 6.84041 2.42684 6.87042C2.4906 6.90042 2.56367 6.90387 2.62998 6.88C2.69628 6.85613 2.75039 6.8069 2.78039 6.74314C2.8104 6.67937 2.81385 6.6063 2.78998 6.54L2.69998 6.3L3.48998 6.83C3.51887 6.8497 3.55136 6.86351 3.58559 6.87066C3.61982 6.8778 3.65512 6.87813 3.68948 6.87163C3.72383 6.86513 3.75657 6.85193 3.78583 6.83277C3.81508 6.81362 3.84028 6.78889 3.85998 6.76C3.87968 6.73111 3.89349 6.69862 3.90063 6.66439C3.90778 6.63016 3.90811 6.59486 3.90161 6.5605C3.89511 6.52614 3.8819 6.4934 3.86275 6.46415C3.8436 6.43489 3.81887 6.4097 3.78998 6.39L2.99998 5.85H3.24998C3.32026 5.85 3.38766 5.82208 3.43736 5.77238C3.48706 5.72269 3.51498 5.65528 3.51498 5.585C3.51498 5.51472 3.48706 5.44731 3.43736 5.39762C3.38766 5.34792 3.32026 5.32 3.24998 5.32H3.19998Z" fill="currentColor" />
  </symbol>
  <symbol id="ico-arrow-up" viewBox="0 0 16 19" xmlns="http://www.w3.org/2000/svg" xmlns:xlink="http://www.w3.org/1999/xlink" width="16px" height="19px">
    <path fill="currentColor" d="M4.243,2.863 C4.596,2.439 5.227,2.381 5.652,2.734 C6.076,3.087 6.134,3.717 5.781,4.142 C5.767,4.159 5.752,4.175 5.737,4.191 L1.737,8.691 C1.357,9.092 0.724,9.108 0.324,8.728 C-0.058,8.365 -0.093,7.768 0.243,7.363 L4.243,2.863 ZM9.012,3.441 L9.012,17.027 C9.012,17.580 8.565,18.027 8.012,18.027 C7.460,18.027 7.012,17.580 7.012,17.027 L7.012,1.027 C7.012,0.137 8.089,-0.310 8.719,0.320 L15.719,7.320 C16.103,7.718 16.092,8.351 15.695,8.734 C15.307,9.109 14.693,9.109 14.305,8.734 L9.012,3.441 Z" />
  </symbol>
  <symbol id="ico-arrow-down" viewBox="0 0 16 19" xmlns="http://www.w3.org/2000/svg" xmlns:xlink="http://www.w3.org/1999/xlink" width="16px" height="19px">
    <path fill="currentColor" d="M5.781,13.861 C6.162,14.262 6.145,14.895 5.745,15.275 C5.345,15.656 4.712,15.639 4.331,15.239 C4.316,15.223 4.301,15.206 4.287,15.189 L0.287,10.689 C-0.093,10.289 -0.077,9.656 0.324,9.276 C0.724,8.895 1.357,8.911 1.737,9.312 C1.752,9.328 1.767,9.345 1.781,9.361 L5.781,13.861 ZM9.012,14.611 L14.305,9.318 C14.702,8.935 15.336,8.946 15.719,9.343 C16.094,9.730 16.094,10.345 15.719,10.732 L8.719,17.732 C8.089,18.362 7.012,17.916 7.012,17.025 L7.012,1.025 C7.012,0.473 7.460,0.025 8.012,0.025 C8.565,0.025 9.012,0.473 9.012,1.025 L9.012,14.611 Z" />
  </symbol>
  <symbol id="ico-grid" viewBox="0 0 18 19" xmlns="http://www.w3.org/2000/svg" xmlns:xlink="http://www.w3.org/1999/xlink" width="18px" height="19px">
    <path fill="currentColor" d="M16.000,12.027 L11.000,12.027 C10.448,12.027 10.000,11.580 10.000,11.027 C10.000,10.475 10.448,10.027 11.000,10.027 L17.000,10.027 C17.552,10.027 18.000,10.475 18.000,11.027 L18.000,17.027 C18.000,17.580 17.552,18.027 17.000,18.027 L11.000,18.027 C10.448,18.027 10.000,17.580 10.000,17.027 L10.000,15.027 C10.000,14.475 10.448,14.027 11.000,14.027 C11.552,14.027 12.000,14.475 12.000,15.027 L12.000,16.027 L16.000,16.027 L16.000,12.027 ZM12.000,2.027 L12.000,6.027 L16.000,6.027 L16.000,2.027 L12.000,2.027 ZM11.000,0.027 L17.000,0.027 C17.552,0.027 18.000,0.475 18.000,1.027 L18.000,7.027 C18.000,7.580 17.552,8.027 17.000,8.027 L11.000,8.027 C10.448,8.027 10.000,7.580 10.000,7.027 L10.000,1.027 C10.000,0.475 10.448,0.027 11.000,0.027 ZM2.000,12.027 L2.000,16.027 L6.000,16.027 L6.000,12.027 L2.000,12.027 ZM1.000,10.027 L7.000,10.027 C7.552,10.027 8.000,10.475 8.000,11.027 L8.000,17.027 C8.000,17.580 7.552,18.027 7.000,18.027 L1.000,18.027 C0.448,18.027 -0.000,17.580 -0.000,17.027 L-0.000,11.027 C-0.000,10.475 0.448,10.027 1.000,10.027 ZM2.000,2.027 L2.000,6.027 L6.000,6.027 L6.000,2.027 L2.000,2.027 ZM1.000,0.027 L7.000,0.027 C7.552,0.027 8.000,0.475 8.000,1.027 L8.000,7.027 C8.000,7.580 7.552,8.027 7.000,8.027 L1.000,8.027 C0.448,8.027 -0.000,7.580 -0.000,7.027 L-0.000,1.027 C-0.000,0.475 0.448,0.027 1.000,0.027 Z" />
  </symbol>
  <symbol id="ico-list" viewBox="0 0 18 23" xmlns="http://www.w3.org/2000/svg" xmlns:xlink="http://www.w3.org/1999/xlink" width="18px" height="23px">
    <path fill="currentColor" d="M16.299,15.550 C16.829,15.237 17.519,15.404 17.839,15.924 C18.158,16.444 17.988,17.119 17.458,17.433 C17.443,17.442 17.427,17.450 17.412,17.459 L9.562,21.857 C9.217,22.049 8.794,22.049 8.450,21.857 L0.600,17.459 C0.056,17.170 -0.147,16.503 0.147,15.969 C0.442,15.435 1.122,15.235 1.667,15.524 C1.682,15.533 1.698,15.541 1.713,15.550 L9.006,19.636 L16.299,15.550 ZM16.299,10.053 C16.829,9.739 17.519,9.907 17.839,10.427 C18.158,10.946 17.988,11.622 17.458,11.936 C17.443,11.945 17.427,11.953 17.412,11.962 L9.562,16.360 C9.217,16.552 8.794,16.552 8.450,16.360 L0.600,11.962 C0.056,11.673 -0.147,11.006 0.147,10.472 C0.442,9.937 1.122,9.738 1.667,10.027 C1.682,10.035 1.698,10.044 1.713,10.053 L9.006,14.138 L16.299,10.053 ZM14.595,5.510 L8.450,2.067 C7.905,1.778 7.702,1.111 7.996,0.577 C8.291,0.043 8.971,-0.157 9.516,0.132 C9.532,0.141 9.547,0.149 9.562,0.158 L17.412,4.556 C17.949,4.857 18.136,5.529 17.828,6.056 C17.729,6.226 17.585,6.367 17.412,6.465 L9.562,10.862 C9.217,11.055 8.794,11.055 8.450,10.862 L0.600,6.465 C0.063,6.163 -0.124,5.491 0.184,4.964 C0.283,4.794 0.427,4.653 0.600,4.556 L4.934,2.127 C5.468,1.819 6.155,1.994 6.470,2.517 C6.784,3.040 6.606,3.714 6.072,4.022 C6.063,4.027 6.055,4.032 6.046,4.037 L3.417,5.510 L9.006,8.641 L14.595,5.510 Z" />
  </symbol>
  <symbol id="ico-add-to-cart" width="21" height="24" viewBox="0 0 21 24" fill="none" xmlns="http://www.w3.org/2000/svg">
    <path fill-rule="evenodd" clip-rule="evenodd" d="M17 22C17.552 22 18 21.552 18 21C18 20.448 17.552 20 17 20C16.448 20 16 20.448 16 21C16 21.552 16.448 22 17 22ZM17 24C15.343 24 14 22.657 14 21C14 19.343 15.343 18 17 18C18.657 18 20 19.343 20 21C20 22.657 18.657 24 17 24ZM3 22C3.552 22 4 21.552 4 21C4 20.448 3.552 20 3 20C2.448 20 2 20.448 2 21C2 21.552 2.448 22 3 22ZM4.247 18.27L4.94 16.884L2.22 6H1C0.448 6 0 5.552 0 5C0 4.448 0.448 4 1 4H3C3.459 4 3.858 4.312 3.97 4.757L5.03 9H19C19.552 9 20 9.448 19.999 10.001C19.999 10.066 19.993 10.132 19.98 10.196L18.98 15.196C18.904 15.575 18.617 15.876 18.243 15.97L10.243 17.97C9.706 18.1 9.166 17.771 9.035 17.234C8.906 16.703 9.228 16.167 9.757 16.03L17.144 14.183L17.78 11H5.53L6.97 16.757C7.028 16.989 7.001 17.233 6.894 17.447L5.894 19.447C5.846 19.543 5.783 19.631 5.708 19.707C6.422 21.202 5.789 22.993 4.294 23.707C2.799 24.421 1.008 23.788 0.294 22.293C-0.42 20.798 0.213 19.007 1.708 18.293C2.509 17.91 3.439 17.901 4.247 18.27Z" fill="#4B6992" />
    <path d="M6 13L4.5 7H18V8V9V10.5L17 13H6Z" fill="white" />
    <path fill-rule="evenodd" clip-rule="evenodd" d="M15.9411 7.17312C15.5611 7.16712 15.2591 6.85512 15.2651 6.47612C15.2721 6.10712 15.5711 5.80912 15.9411 5.80312H19.3441C19.7241 5.81012 20.0271 6.12212 20.0201 6.50012C20.0141 6.86912 19.7151 7.16712 19.3451 7.17312H15.9411ZM12.8221 5.80312V0.673119C12.8291 0.295119 13.1421 -0.00688073 13.5221 0.000119273C13.8921 0.00611927 14.1911 0.304119 14.1971 0.673119V12.3031C14.2041 12.6821 13.9021 12.9941 13.5221 13.0011C13.1421 13.0071 12.8291 12.7061 12.8221 12.3271C12.8221 12.3191 12.8221 12.3121 12.8221 12.3031V7.17312H7.67512C7.29612 7.16712 6.99312 6.85512 7.00012 6.47612C7.00612 6.10712 7.30512 5.80912 7.67512 5.80312H12.8221Z" fill="#E41F23" />
  </symbol>
  <symbol id="ico-nav-prev" width="7" height="10" viewBox="0 0 7 10" fill="none" xmlns="http://www.w3.org/2000/svg">
    <path fill-rule="evenodd" clip-rule="evenodd" d="M6.53987 0.253597C6.85478 0.581514 6.84421 1.10237 6.51684 1.41823L2.79078 5.00032L6.51662 8.5822C6.84445 8.89726 6.85466 9.41947 6.53969 9.74724C6.22464 10.0751 5.70243 10.0853 5.37466 9.77031L1.03153 5.59435C0.870544 5.43848 0.779188 5.22439 0.779188 5.00032C0.779188 4.77666 0.869881 4.56157 1.03153 4.4063L5.37462 0.230365C5.53428 0.0770966 5.73949 -4.50179e-08 5.94564 -3.60069e-08C6.16149 -2.65718e-08 6.37826 0.0843961 6.53987 0.253597Z" fill="currentColor" />
  </symbol>
  <symbol id="ico-nav-next" width="7" height="10" viewBox="0 0 7 10" fill="none" xmlns="http://www.w3.org/2000/svg">
    <path fill-rule="evenodd" clip-rule="evenodd" d="M1.00869 9.7464C0.693782 9.41849 0.704353 8.89763 1.03172 8.58177L4.75779 4.99968L1.03195 1.4178C0.704116 1.10274 0.693909 0.58053 1.00887 0.252762C1.32393 -0.0750968 1.84613 -0.0852877 2.17391 0.229686L6.51704 4.40565C6.67802 4.56152 6.76938 4.77561 6.76938 4.99968C6.76938 5.22334 6.67869 5.43843 6.51704 5.5937L2.17394 9.76963C2.01429 9.9229 1.80908 10 1.60293 10C1.38708 10 1.1703 9.9156 1.00869 9.7464Z" fill="currentColor" />
  </symbol>
  <symbol id="ico-filter" viewBox="0 0 18 18" xmlns="http://www.w3.org/2000/svg" xmlns:xlink="http://www.w3.org/1999/xlink">
    <path fill="currentColor" d="M17.600,0.201 C17.158,-0.130 16.531,-0.041 16.200,0.401 L10.200,8.401 C10.070,8.574 10.000,8.785 10.000,9.001 L10.000,14.383 L8.000,15.383 L8.000,9.001 C8.000,8.785 7.930,8.574 7.800,8.401 L3.000,2.001 L13.000,2.001 C13.552,2.001 14.000,1.553 14.000,1.001 C14.000,0.449 13.552,0.001 13.000,0.001 L1.000,0.001 C0.784,0.001 0.573,0.071 0.400,0.201 C-0.042,0.532 -0.131,1.159 0.200,1.601 L6.000,9.334 L6.000,17.001 C6.000,17.156 6.036,17.309 6.105,17.447 C6.352,17.941 6.953,18.142 7.447,17.895 L11.447,15.895 C11.786,15.726 12.000,15.380 12.000,15.001 L12.000,9.334 L17.800,1.601 C18.131,1.159 18.042,0.532 17.600,0.201 Z" />
  </symbol>
  <symbol id="ico-back-arrow" viewBox="0 0 18 16" xmlns="http://www.w3.org/2000/svg" xmlns:xlink="http://www.w3.org/1999/xlink">
    <path fill="currentColor" d="M4.170,5.781 C3.769,6.162 3.136,6.145 2.756,5.745 C2.375,5.345 2.392,4.712 2.792,4.331 C2.808,4.316 2.825,4.301 2.842,4.287 L7.342,0.287 C7.742,-0.093 8.375,-0.077 8.755,0.324 C9.136,0.724 9.120,1.357 8.719,1.737 C8.703,1.752 8.687,1.767 8.670,1.781 L4.170,5.781 ZM3.420,9.012 L8.713,14.305 C9.096,14.702 9.085,15.336 8.688,15.719 C8.301,16.094 7.686,16.094 7.299,15.719 L0.299,8.719 C-0.331,8.089 0.115,7.012 1.006,7.012 L17.006,7.012 C17.558,7.012 18.006,7.460 18.006,8.012 C18.006,8.565 17.558,9.012 17.006,9.012 L3.420,9.012 Z" />
  </symbol>
  <symbol id='ico-upload' viewBox="0 0 21.45 18.45" xmlns="http://www.w3.org/2000/svg" xmlns:xlink="http://www.w3.org/1999/xlink">
    <path fill-rule="evenodd" stroke="rgb(255, 255, 255)" stroke-width="0.3px" stroke-linecap="butt" stroke-linejoin="miter" fill="rgb(86, 105, 143)" d="M16.318,15.148 C15.859,15.294 15.370,15.037 15.225,14.578 C15.080,14.119 15.336,13.630 15.795,13.485 C18.041,12.779 19.180,10.966 19.180,8.096 C19.180,4.799 16.497,2.117 13.198,2.117 C10.330,2.117 7.860,4.160 7.325,6.974 L7.147,7.910 L6.230,7.649 C5.936,7.565 5.639,7.523 5.346,7.523 C3.566,7.523 2.118,8.970 2.118,10.748 C2.118,12.527 3.566,13.975 5.346,13.975 L5.524,13.962 C6.011,13.944 6.416,14.305 6.441,14.786 C6.467,15.267 6.098,15.677 5.616,15.703 L5.558,15.707 C5.488,15.713 5.418,15.717 5.346,15.717 C2.605,15.717 0.375,13.488 0.375,10.748 C0.375,8.009 2.605,5.780 5.346,5.780 C5.505,5.780 5.663,5.788 5.822,5.804 C6.812,2.611 9.787,0.374 13.198,0.374 C17.458,0.374 20.923,3.838 20.923,8.096 C20.923,11.762 19.331,14.201 16.318,15.148 ZM10.091,8.853 C10.094,8.850 10.095,8.845 10.097,8.843 C10.269,8.672 10.492,8.587 10.716,8.587 C10.939,8.587 11.163,8.672 11.334,8.843 C11.336,8.844 11.336,8.848 11.339,8.851 L13.745,11.255 C14.086,11.596 14.086,12.148 13.745,12.488 C13.575,12.658 13.351,12.743 13.128,12.743 C12.905,12.743 12.683,12.658 12.512,12.488 L11.590,11.566 L11.590,17.052 C11.590,17.533 11.200,17.923 10.717,17.923 C10.236,17.923 9.845,17.533 9.845,17.052 L9.845,11.562 L8.919,12.488 C8.750,12.658 8.527,12.743 8.303,12.743 C8.080,12.743 7.857,12.658 7.687,12.488 C7.346,12.148 7.346,11.596 7.687,11.255 L10.091,8.853 Z" />
  </symbol>
  <symbol id='ico-remove' viewBox="0 0 14 14" xmlns="http://www.w3.org/2000/svg" xmlns:xlink="http://www.w3.org/1999/xlink">
    <path fill="currentColor" d="M8.805,10.195 C8.422,9.797 8.433,9.164 8.830,8.781 C9.217,8.406 9.832,8.406 10.219,8.781 L13.719,12.281 C14.103,12.678 14.092,13.311 13.695,13.695 C13.307,14.069 12.693,14.069 12.305,13.695 L8.805,10.195 ZM7.012,5.574 L12.305,0.281 C12.703,-0.103 13.336,-0.092 13.719,0.305 C14.093,0.693 14.093,1.307 13.719,1.695 L1.719,13.695 C1.336,14.092 0.702,14.103 0.305,13.719 C-0.092,13.336 -0.103,12.703 0.281,12.305 C0.289,12.297 0.297,12.289 0.305,12.281 L5.598,6.988 L0.305,1.695 C-0.078,1.297 -0.067,0.664 0.330,0.281 C0.717,-0.094 1.332,-0.094 1.719,0.281 L7.012,5.574 Z" />
  </symbol>
  <symbol id="ico-calendar" viewBox="0 0 13 14" width="13px" height="14px" xmlns="http://www.w3.org/2000/svg" xmlns:xlink="http://www.w3.org/1999/xlink">
    <path fill="currentColor" d="M11.934,13.785 L0.852,13.785 C0.381,13.785 -0.000,13.399 -0.000,12.923 L-0.000,4.308 L-0.000,3.447 L-0.000,1.723 C-0.000,1.247 0.381,0.862 0.852,0.862 L3.410,0.862 L3.410,-0.000 L4.262,-0.000 L4.262,0.862 L8.524,0.862 L8.524,-0.000 L9.377,-0.000 L9.377,0.862 L12.361,0.862 C12.831,0.862 12.787,1.247 12.787,1.723 L12.787,3.447 L12.787,4.308 L12.787,12.923 C12.787,13.399 12.405,13.785 11.934,13.785 ZM11.934,2.154 C11.934,1.916 11.744,1.723 11.508,1.723 L9.377,1.723 L9.377,2.585 L8.524,2.585 L8.524,1.723 L4.262,1.723 L4.262,2.585 L3.410,2.585 L3.410,1.723 L1.279,1.723 C1.043,1.723 0.852,1.916 0.852,2.154 L0.852,3.447 L11.934,3.447 L11.934,2.154 ZM11.934,4.308 L0.852,4.308 L0.852,12.492 C0.852,12.730 1.043,12.923 1.279,12.923 L11.508,12.923 C11.744,12.923 11.934,12.730 11.934,12.492 L11.934,4.308 ZM8.524,9.477 L11.082,9.477 L11.082,12.062 L8.524,12.062 L8.524,9.477 ZM9.377,11.200 L10.229,11.200 L10.229,10.338 L9.377,10.338 L9.377,11.200 ZM8.524,6.031 L11.082,6.031 L11.082,8.615 L8.524,8.615 L8.524,6.031 ZM9.377,7.754 L10.229,7.754 L10.229,6.892 L9.377,6.892 L9.377,7.754 ZM5.115,9.477 L7.672,9.477 L7.672,12.062 L5.115,12.062 L5.115,9.477 ZM5.967,11.200 L6.819,11.200 L6.819,10.338 L5.967,10.338 L5.967,11.200 ZM5.115,6.031 L7.672,6.031 L7.672,8.615 L5.115,8.615 L5.115,6.031 ZM5.967,7.754 L6.819,7.754 L6.819,6.892 L5.967,6.892 L5.967,7.754 ZM1.705,9.477 L4.262,9.477 L4.262,12.062 L1.705,12.062 L1.705,9.477 ZM2.557,11.200 L3.410,11.200 L3.410,10.338 L2.557,10.338 L2.557,11.200 ZM1.705,6.031 L4.262,6.031 L4.262,8.615 L1.705,8.615 L1.705,6.031 ZM2.557,7.754 L3.410,7.754 L3.410,6.892 L2.557,6.892 L2.557,7.754 Z" />
  </symbol>
  <symbol id="ico-next" viewBox="0 0 18 18" xmlns="http://www.w3.org/2000/svg" xmlns:xlink="http://www.w3.org/1999/xlink">
    <path fill="currentColor" d="M13.835,11.258 C14.236,10.878 14.869,10.894 15.249,11.295 C15.629,11.695 15.613,12.328 15.213,12.708 C15.197,12.724 15.180,12.738 15.163,12.752 L10.663,16.752 C10.263,17.133 9.630,17.117 9.249,16.716 C8.869,16.316 8.885,15.683 9.286,15.302 C9.302,15.287 9.318,15.272 9.335,15.258 L13.835,11.258 ZM14.585,7.993 L9.292,2.700 C8.895,2.316 8.884,1.683 9.268,1.286 C9.651,0.889 10.284,0.878 10.682,1.262 C10.690,1.270 10.698,1.278 10.706,1.286 L17.706,8.286 C18.336,8.916 17.890,9.993 16.999,9.993 L0.999,9.993 C0.447,9.993 -0.001,9.545 -0.001,8.993 C-0.001,8.441 0.447,7.993 0.999,7.993 L14.585,7.993 Z"/>
  </symbol>

</svg>